<svg xmlns="http://www.w3.org/2000/svg" viewBox="0 0 1280 640" width="1280" height="640">
  <rect width="1280" height="640" fill="#F7F4EE"/>
  <line x1="80" y1="40" x2="1200" y2="40" stroke="#E0DACE" stroke-width="1"/>
  <line x1="80" y1="600" x2="1200" y2="600" stroke="#E0DACE" stroke-width="1"/>
  <text x="80" y="80" font-family="ui-monospace, 'JetBrains Mono', monospace"
        font-size="22" fill="#1A1817" letter-spacing="0.5" opacity="0.55">software · discipline · alignment</text>
  <g fill="none" stroke="#2C5970" stroke-width="1" opacity="0.55">
    <rect x="420" y="174" width="440" height="272"/>
    <line x1="588" y1="174" x2="588" y2="446"/>
    <line x1="420" y1="342" x2="588" y2="342"/>
    <line x1="524" y1="342" x2="524" y2="446"/>
    <line x1="524" y1="406" x2="588" y2="406"/>
    <line x1="564" y1="342" x2="564" y2="406"/>
  </g>
  <path d="M 860 174 A 272 272 0 0 0 588 446 A 168 168 0 0 0 420 278 A 104 104 0 0 0 524 174 A 64 64 0 0 1 588 238 A 40 40 0 0 1 548 278"
        fill="none" stroke="#2C5970" stroke-width="1.75" stroke-linecap="round"/>
</svg>
