<svg xmlns="http://www.w3.org/2000/svg" viewBox="0 0 180 180" width="180" height="180">
  <rect width="180" height="180" fill="#F7F4EE"/>
  <g transform="translate(40, 60) scale(1.0)">
    <rect x="0" y="0" width="100" height="62" stroke="#2C5970" stroke-width="0.7" fill="none" opacity="0.4"/>
    <line x1="38" y1="0" x2="38" y2="62" stroke="#2C5970" stroke-width="0.5" opacity="0.3"/>
    <line x1="0" y1="38" x2="38" y2="38" stroke="#2C5970" stroke-width="0.5" opacity="0.3"/>
    <line x1="24" y1="38" x2="24" y2="62" stroke="#2C5970" stroke-width="0.5" opacity="0.3"/>
    <path d="M 100 0 A 62 62 0 0 0 38 62 A 38 38 0 0 0 0 24 A 24 24 0 0 0 24 0 A 14 14 0 0 1 38 14 A 9 9 0 0 1 29 24"
          fill="none" stroke="#2C5970" stroke-width="3" stroke-linecap="round" stroke-linejoin="round"/>
  </g>
</svg>
